<?xml version="1.0" standalone="no"?>
<!DOCTYPE svg PUBLIC "-//W3C//DTD SVG 20010904//EN"
 "http://www.w3.org/TR/2001/REC-SVG-20010904/DTD/svg10.dtd">
<svg version="1.0" xmlns="http://www.w3.org/2000/svg"
 width="400.000000pt" height="400.000000pt" viewBox="0 0 400.000000 400.000000"
 preserveAspectRatio="xMidYMid meet">
<metadata>
Created by potrace 1.14, written by Peter Selinger 2001-2017
</metadata>
<g transform="translate(0.000000,400.000000) scale(0.100000,-0.100000)"
fill="#000000" stroke="none">
<path d="M825 3993 c-344 -48 -663 -307 -769 -625 -54 -161 -50 -65 -53 -1338
-2 -1106 -1 -1180 16 -1260 23 -104 44 -166 86 -250 118 -234 348 -421 598
-486 34 -9 71 -19 82 -22 11 -4 544 -7 1185 -9 1244 -3 1233 -3 1380 47 282
95 520 335 603 610 47 152 46 140 46 1345 0 1075 -1 1145 -19 1225 -24 113
-42 164 -80 241 -96 189 -239 333 -427 428 -65 32 -190 76 -252 88 -38 7
-2345 13 -2396 6z"/>
</g>
</svg>
